<svg width="21" height="21" viewBox="0 0 21 21" fill="none" xmlns="http://www.w3.org/2000/svg">
<path d="M19.25 21L14.6562 16.625L15.2075 18.375H3.9375C3.35734 18.375 2.80094 18.1445 2.3907 17.7343C1.98047 17.3241 1.75 16.7677 1.75 16.1875V3.0625C1.75 2.48234 1.98047 1.92594 2.3907 1.5157C2.80094 1.10547 3.35734 0.875 3.9375 0.875H17.0625C17.6427 0.875 18.1991 1.10547 18.6093 1.5157C19.0195 1.92594 19.25 2.48234 19.25 3.0625V21ZM10.5 5.95C8.155 5.95 6.51 6.95625 6.51 6.95625C7.41125 6.15125 8.98625 5.6875 8.98625 5.6875L8.8375 5.53875C7.35875 5.565 6.02 6.58875 6.02 6.58875C4.515 9.73 4.61125 12.4425 4.61125 12.4425C5.83625 14.0263 7.65625 13.9125 7.65625 13.9125L8.2775 13.125C7.18375 12.8887 6.4925 11.9175 6.4925 11.9175C6.4925 11.9175 8.1375 13.0375 10.5 13.0375C12.8625 13.0375 14.5075 11.9175 14.5075 11.9175C14.5075 11.9175 13.8162 12.8887 12.7225 13.125L13.3438 13.9125C13.3438 13.9125 15.1637 14.0263 16.3887 12.4425C16.3887 12.4425 16.485 9.73 14.98 6.58875C14.98 6.58875 13.6412 5.565 12.1625 5.53875L12.0137 5.6875C12.0137 5.6875 13.5887 6.15125 14.49 6.95625C14.49 6.95625 12.845 5.95 10.5 5.95M8.68875 9.26625C9.2575 9.26625 9.72125 9.765 9.7125 10.3775C9.7125 10.9812 9.2575 11.4888 8.68875 11.4888C8.12875 11.4888 7.67375 10.9812 7.67375 10.3775C7.67375 9.765 8.12 9.26625 8.68875 9.26625ZM12.3375 9.26625C12.9063 9.26625 13.3613 9.765 13.3613 10.3775C13.3613 10.9812 12.9063 11.4888 12.3375 11.4888C11.7775 11.4888 11.3225 10.9812 11.3225 10.3775C11.3225 9.765 11.7688 9.26625 12.3375 9.26625Z" fill="white"/>
</svg>
