<svg width="21" height="21" viewBox="0 0 21 21" fill="none" xmlns="http://www.w3.org/2000/svg">
<path d="M18.2083 2.875C18.7167 2.875 19.2042 3.07693 19.5636 3.43638C19.9231 3.79582 20.125 4.28334 20.125 4.79167V18.2083C20.125 18.7167 19.9231 19.2042 19.5636 19.5636C19.2042 19.9231 18.7167 20.125 18.2083 20.125H4.79167C4.28334 20.125 3.79582 19.9231 3.43638 19.5636C3.07693 19.2042 2.875 18.7167 2.875 18.2083V4.79167C2.875 4.28334 3.07693 3.79582 3.43638 3.43638C3.79582 3.07693 4.28334 2.875 4.79167 2.875H18.2083ZM17.7292 17.7292V12.65C17.7292 11.8214 17.4 11.0268 16.8141 10.4409C16.2282 9.85499 15.4336 9.52583 14.605 9.52583C13.7904 9.52583 12.8417 10.0242 12.3817 10.7717V9.70792H9.70792V17.7292H12.3817V13.0046C12.3817 12.2667 12.9758 11.6629 13.7138 11.6629C14.0696 11.6629 14.4108 11.8043 14.6625 12.0559C14.9141 12.3075 15.0554 12.6488 15.0554 13.0046V17.7292H17.7292ZM6.59333 8.20333C7.02033 8.20333 7.42984 8.03371 7.73178 7.73178C8.03371 7.42984 8.20333 7.02033 8.20333 6.59333C8.20333 5.70208 7.48458 4.97375 6.59333 4.97375C6.16379 4.97375 5.75185 5.14438 5.44811 5.44812C5.14438 5.75185 4.97375 6.16379 4.97375 6.59333C4.97375 7.48458 5.70208 8.20333 6.59333 8.20333ZM7.92542 17.7292V9.70792H5.27083V17.7292H7.92542Z" fill="white"/>
</svg>
