<svg width="21" height="21" viewBox="0 0 21 21" fill="none" xmlns="http://www.w3.org/2000/svg">
<path d="M10.5 1.75001C9.35093 1.75001 8.21312 1.97633 7.15152 2.41606C6.08992 2.85579 5.12533 3.50031 4.31282 4.31282C2.67187 5.95377 1.75 8.17936 1.75 10.5C1.75 14.3675 4.26125 17.6488 7.735 18.8125C8.1725 18.8825 8.3125 18.6113 8.3125 18.375V16.8963C5.88875 17.4213 5.3725 15.7238 5.3725 15.7238C4.97 14.7088 4.40125 14.4375 4.40125 14.4375C3.605 13.895 4.4625 13.9125 4.4625 13.9125C5.3375 13.9738 5.80125 14.8138 5.80125 14.8138C6.5625 16.1438 7.84875 15.75 8.3475 15.54C8.42625 14.9713 8.65375 14.5863 8.89875 14.3675C6.95625 14.1488 4.9175 13.3963 4.9175 10.0625C4.9175 9.09126 5.25 8.31251 5.81875 7.69126C5.73125 7.47251 5.425 6.56251 5.90625 5.38126C5.90625 5.38126 6.64125 5.14501 8.3125 6.27376C9.00375 6.08126 9.75625 5.98501 10.5 5.98501C11.2438 5.98501 11.9962 6.08126 12.6875 6.27376C14.3587 5.14501 15.0938 5.38126 15.0938 5.38126C15.575 6.56251 15.2688 7.47251 15.1813 7.69126C15.75 8.31251 16.0825 9.09126 16.0825 10.0625C16.0825 13.405 14.035 14.14 12.0838 14.3588C12.3988 14.63 12.6875 15.1638 12.6875 15.9775V18.375C12.6875 18.6113 12.8275 18.8913 13.2738 18.8125C16.7475 17.64 19.25 14.3675 19.25 10.5C19.25 9.35094 19.0237 8.21312 18.5839 7.15153C18.1442 6.08993 17.4997 5.12533 16.6872 4.31282C15.8747 3.50031 14.9101 2.85579 13.8485 2.41606C12.7869 1.97633 11.6491 1.75001 10.5 1.75001V1.75001Z" fill="white"/>
</svg>
